<?xml version="1.0" encoding="UTF-8" standalone="no"?>
<!-- Created with Inkscape (http://www.inkscape.org/) -->

<svg
   xmlns:dc="http://purl.org/dc/elements/1.1/"
   xmlns:cc="http://creativecommons.org/ns#"
   xmlns:rdf="http://www.w3.org/1999/02/22-rdf-syntax-ns#"
   xmlns:svg="http://www.w3.org/2000/svg"
   xmlns="http://www.w3.org/2000/svg"
   xmlns:sodipodi="http://sodipodi.sourceforge.net/DTD/sodipodi-0.dtd"
   xmlns:inkscape="http://www.inkscape.org/namespaces/inkscape"
   width="100.02449mm"
   height="94.55291mm"
   viewBox="0 0 100.02449 94.55291"
   version="1.1"
   id="svg2278"
   inkscape:version="0.92.4 (5da689c313, 2019-01-14)"
   sodipodi:docname="dibujo1.svg">
  <defs
     id="defs2272" />
  <sodipodi:namedview
     id="base"
     pagecolor="#ffffff"
     bordercolor="#666666"
     borderopacity="1.0"
     inkscape:pageopacity="0.0"
     inkscape:pageshadow="2"
     inkscape:zoom="0.35"
     inkscape:cx="681.87982"
     inkscape:cy="390.11124"
     inkscape:document-units="mm"
     inkscape:current-layer="layer1"
     showgrid="false"
     inkscape:pagecheckerboard="true"
     fit-margin-top="0"
     fit-margin-left="0"
     fit-margin-right="0"
     fit-margin-bottom="0"
     inkscape:window-width="1920"
     inkscape:window-height="1017"
     inkscape:window-x="-8"
     inkscape:window-y="-8"
     inkscape:window-maximized="1" />
  <metadata
     id="metadata2275">
    <rdf:RDF>
      <cc:Work
         rdf:about="">
        <dc:format>image/svg+xml</dc:format>
        <dc:type
           rdf:resource="http://purl.org/dc/dcmitype/StillImage" />
        <dc:title></dc:title>
      </cc:Work>
    </rdf:RDF>
  </metadata>
  <g
     inkscape:label="Capa 1"
     inkscape:groupmode="layer"
     id="layer1"
     transform="translate(214.05392,-157.49736)">
    <g
       transform="matrix(0.26458333,0,0,0.26458333,-218.01688,149.06526)"
       id="g1623">
      <path
         inkscape:connector-curvature="0"
         d="m 267.98666,60.817347 c 1.67333,0.557334 5.79067,3.541334 8.29333,4.853334 3.11734,1.636 5.844,2.916 9.18934,4.470666 6.33866,2.942667 12.936,5.333333 18.90666,8.465333 1.656,0.869334 6.828,2.905334 10.208,5.526667 18.276,14.163999 10.3,1.766666 21.80133,1.285333 l -11.22399,-10.344 c -2.34267,-0.484 -11.10267,-5.955999 -14.62134,-7.713333 -10.95466,-5.468 -21.21333,-9.313333 -32.99466,-13.095999 -6.44667,-2.069334 -11.44534,-4.868 -16.93734,-6.756 0.87467,7.630666 3.37734,8.174666 5.97334,11.306666 1.40533,1.696 0.48133,0.393333 1.40533,2.001333"
         style="fill:#7a7761;fill-opacity:1;fill-rule:evenodd;stroke:none;stroke-width:0.13333333"
         id="path16" />
      <path
         inkscape:connector-curvature="0"
         d="m 325.16133,75.07468 1.37733,-0.557333 c -2.644,-4.629333 -1.272,-9.772 -0.444,-14.734666 L 303.45999,49.200014 c -15.76,-6.526666 -34.73866,-11.695999 -51.94533,-14.339999 -8.30533,-1.276 -23.15733,-1.485334 -29.67867,-2.990667 H 196.032 c -3.23734,1.305333 -44.17467,6.412 -49.63867,6.296 5.976,15.594666 39.16267,6.256 54.95066,5.546667 16.42534,-0.737334 37.764,0.365333 54.15867,4.018666 5.05067,1.125333 4.19067,-0.561333 4.21333,-0.590667 0.0733,-0.1 0.17734,-0.330666 0.23867,-0.429333 0.0613,-0.101333 0.17333,-0.369333 0.22133,-0.456 0.048,-0.088 0.104,-0.337333 0.21467,-0.469333 6.57733,4.888 33.81867,12.462666 49.96133,20.362666 2.096,1.026667 13.40934,6.758666 14.80934,8.926666"
         style="fill:#7a7761;fill-opacity:1;fill-rule:evenodd;stroke:none;stroke-width:0.13333333"
         id="path18" />
      <path
         inkscape:connector-curvature="0"
         d="m 50.041732,144.94268 c 16.0676,1.88667 27.850399,-10.924 36.331733,-17.172 2.020799,-1.488 3.020799,-2.196 4.585866,-4.06 2.199467,-2.62 2.396933,-2.60533 4.871867,-4.50133 1.967733,-1.50667 2.573466,-2.764 4.415202,-4.18534 l 14.93853,-11.70266 c 4.10413,-2.94534 17.39107,-12.244003 22.4124,-13.629337 -1.11867,-2.557333 -1.35867,-1.574666 -1.34267,-3.330666 39.336,-13.805333 33.844,-11.977333 73.812,-16.436 -3.14,-1.913333 -14.84533,-3.842666 -17.812,-11.532 -33.216,5.984 -54.628,11.398667 -82.47293,31.596 -5.77907,4.192 -10.481199,7.965333 -15.244799,12.804003 -4.950933,5.028 -8.411466,7.456 -14.571333,14.24666 l -14.2932,14.488 c -5.999466,6.42 -11.977599,9.864 -14.505733,12.172 -0.861466,0.78667 -0.440666,0.376 -1.124933,1.24267"
         style="fill:#7a7761;fill-opacity:1;fill-rule:evenodd;stroke:none;stroke-width:0.13333333"
         id="path20" />
      <path
         inkscape:connector-curvature="0"
         d="M 92.013598,77.177347 C 114.226,90.60268 146.036,61.989347 190.576,57.821347 l 0.64666,-1.553333 c 0.06,-0.133333 0.15334,-0.365333 0.21734,-0.506666 0.0653,-0.138667 0.17333,-0.362667 0.236,-0.490667 l 0.508,-0.94 c 2.824,1.637333 40.38933,2.353333 55.26133,4.984 14.30933,2.530666 5.75466,1.44 16.63066,-0.773334 l -4.536,-8.534666 c -2.67733,-2.630667 -31.33866,-5.097333 -35.83466,-5.32 -45.452,-2.250666 -72.28,8.213333 -112.13133,24.746666 -4.136,1.714667 -17.045869,5.818667 -19.560402,7.744"
         style="fill:#7a7761;fill-opacity:1;fill-rule:evenodd;stroke:none;stroke-width:0.13333333"
         id="path22" />
      <path
         inkscape:connector-curvature="0"
         d="m 14.978133,146.88268 c 13.371866,0.89867 26.745866,-7 32.789599,-13.86267 l 13.965066,-14.07066 c 2.098934,-1.66534 18.754133,-21.317337 27.645333,-28.505337 1.3708,-1.108 0.944267,-0.902666 2.182267,-2.12 1.852133,-1.82 5.358933,-3.66 8.236933,-6.791999 l -9.4,-5.038667 c 5.181333,-2.514667 13.236529,-4.781333 18.844799,-7.158666 l 37.7712,-14.773333 c 4.856,-1.782667 16.99067,-4.573334 20.284,-6.368 -3.96267,-1.017334 -8.124,-0.101334 -13.24267,-2.126667 -6.228,-2.464 -4.39733,-5.282666 -10.98533,-2.736 -20.91093,8.081333 -35.69587,16.408 -52.810932,30.005333 -1.6636,1.321333 -2.547467,2.246666 -4.353733,3.574666 -2.102,1.545334 -2.493734,2.510667 -4.493734,4.108 -6.282266,5.014667 -10.873466,11.437333 -16.790133,16.346666 L 48.897332,114.74535 c -4.8312,4.27866 -19.189999,20.69866 -24.682266,24.96666 l -9.236933,7.17067"
         style="fill:#7a7761;fill-opacity:1;fill-rule:evenodd;stroke:none;stroke-width:0.13333333"
         id="path24" />
      <path
         inkscape:connector-curvature="0"
         d="m 240.95733,127.26668 c 2.20666,-2.15067 4.104,-7.80267 11.108,-15.18667 7.62666,-8.04 18.04133,-13.542664 28.95733,-15.602663 20.2,-3.810667 31.63067,4.588003 38.45067,5.644003 l -0.1,-0.016 c 4.136,2.24666 7.04133,4.32533 8.71333,6.23466 7.668,6.336 16.152,8.54667 25.452,6.632 -0.63334,-1.64266 -0.99067,-3.524 -1.076,-5.64533 -12.416,3.18533 -20.24267,-0.10133 -23.47867,-9.858667 -0.584,-1.785333 -1.88,-3.889333 -3.88933,-6.309333 -0.508,-0.666667 -4.764,-3.005333 -5.86933,-3.533333 -23.85467,-11.398667 -51.52534,-7.137333 -70.87067,9.350666 -5.59067,4.763997 -11.708,10.038667 -14.056,17.711997 -1.80933,5.91467 1.35333,9.31467 6.65867,10.57867"
         style="fill:#7a7761;fill-opacity:1;fill-rule:evenodd;stroke:none;stroke-width:0.13333333"
         id="path26" />
      <path
         inkscape:connector-curvature="0"
         d="m 335.86666,170.23468 c 0.936,-7.29867 -0.61467,-11.41734 -3.99333,-16.928 -8.412,-13.712 -25.044,-25.54667 -22.456,-38.84267 3.864,0.74134 7.31866,4.744 11.05866,4.67734 -1.10266,0.0227 -2.17866,-0.308 -3.248,-0.804 5.252,3.568 5.21067,7.03866 16.48533,12.49733 19.66,9.51867 32.80134,20.14667 23.79467,45.31866 -0.564,1.57734 -0.896,1.43067 -0.896,2.59467 0.61333,0 2.16133,0.156 2.53867,-0.15333 4.828,-3.952 13.68,-4.64667 18,-6.28934 29.624,-11.272 10.396,-40.93599 1.268,-57.63199 -6.33067,-0.89467 -8.31867,-1.66667 -14.94934,0.56 -7.28133,2.44533 -12.13066,2.31466 -20.112,1.54533 -9.96,-0.96133 -13.34933,-4.88533 -19.38399,-9.57333 -1.87067,-1.54534 -4.17334,-2.77067 -5.692,-3.68534 -24.74934,-14.915997 -26.50134,27.91734 -19.416,35.25867 l 16.81866,11.27067 14.82534,13.93199 c 1.23866,1.58667 3.40666,5.12 5.35733,6.25334"
         style="fill:#7a7761;fill-opacity:1;fill-rule:evenodd;stroke:none;stroke-width:0.13333333"
         id="path28" />
      <path
         inkscape:connector-curvature="0"
         d="m 228.20266,125.03468 c 1.37733,-6.60133 9.88133,-17.56933 12.72667,-21.23733 2.93733,-3.78534 13.03333,-11.265337 19.376,-14.384003 8.59733,-4.226667 16.33866,-6.437333 26.68266,-7.16 12.62667,-0.881333 19.284,2.158666 29.77867,4.961333 -5.80533,-4.809333 -20.24533,-10.988 -28.75467,-14.62 -6.756,-2.882666 -7.63733,-2.777333 -17.82666,-0.07333 -11.26134,2.988 -17.12934,6.312 -25.864,12.352 -10.25734,7.094666 -38.032,37.572 -16.11867,40.16133"
         style="fill:#7a7761;fill-opacity:1;fill-rule:evenodd;stroke:none;stroke-width:0.13333333"
         id="path30" />
      <path
         inkscape:connector-curvature="0"
         d="m 212.11866,99.80668 c -3.75733,5.30533 -12.03333,24.46 1.48933,24.25067 2.90934,-4.70534 3.91334,-10.61467 10.27467,-20.01067 l 10.35867,-11.98 c 7.224,-6.652 2.46933,-3.202667 12.67066,-10.321333 9.69867,-6.766667 20.93867,-10.296 33.076,-12.274666 l -3.13733,-2.286667 c -2.74267,-1.593333 -8.136,-4.305333 -9.592,-6.357333 -2.89733,-1.66 -3.47467,-0.562667 -8.84933,1.382666 -8.72934,3.157334 -23.91867,11.830667 -29.91067,17.682667 l -6.156,6.051999 c -2.55467,2.197334 -8.30133,11.101334 -10.224,13.862667"
         style="fill:#7a7761;fill-opacity:1;fill-rule:evenodd;stroke:none;stroke-width:0.13333333"
         id="path32" />
      <path
         inkscape:connector-curvature="0"
         d="m 137.468,87.289347 c 3.84133,4.92 12.04133,4.961333 19.55866,4.621333 7.29734,-0.330667 12.62934,-3.553333 19.832,-5.345333 14.736,-3.664 30.71467,-4.241333 46.10533,-3.989333 l 8.27734,-7.173334 c 1.29066,-1.138666 1.9,-1.308 3.232,-2.288 -0.15334,-0.114666 -0.41067,-0.433333 -0.504,-0.276 -0.096,0.158667 -0.39067,-0.212 -0.52667,-0.257333 l -4.53733,-0.676 c -17.65067,-1.145333 -28.91467,-1.778666 -47.41067,1.944 -7.93333,1.597333 -39.316,10 -44.02666,13.44"
         style="fill:#7a7761;fill-opacity:1;fill-rule:evenodd;stroke:none;stroke-width:0.13333333"
         id="path34" />
      <path
         inkscape:connector-curvature="0"
         d="m 367.93466,100.35735 c 1.34266,-14.913337 -8.66134,-17.365336 -21.69467,-26.944003 -2.74133,-2.014667 -16.024,-11.644 -18.53066,-11.74 -1.58267,12.398667 1,15.514667 9.57866,22.138667 1.34267,1.038666 1.692,1.097333 2.95067,2.086666 1.59866,1.258667 1.68,1.478667 3.18533,2.588 7.04533,5.192 16.76133,10.376 10.912,18.104 -0.39067,3.93067 0.67333,6.17333 1.32133,8.1 6.744,0.24133 10.136,-3.244 17.09867,-2.12933 0.98933,-3.37334 -4.59467,-5.53867 -4.82133,-12.204"
         style="fill:#7a7761;fill-opacity:1;fill-rule:evenodd;stroke:none;stroke-width:0.13333333"
         id="path36" />
      <path
         inkscape:connector-curvature="0"
         d="m 255.11866,130.84001 c 2.43333,-6.268 9.25467,-13.02933 15.23867,-16.29066 9.08266,-4.952 13.97466,-5.70934 25.30133,-5.28934 1.75467,-1.584 2.192,-3.54133 4.07067,-5.68266 2.164,-2.46534 2.93066,-2.692 5.428,-4.733337 -21.08934,-4.266666 -32.67734,-1.298667 -47.66667,10.018667 -2.57867,1.94667 -4.056,3.692 -5.89467,6.35867 -4.92933,7.15066 -6.14533,13.112 3.52267,15.61866"
         style="fill:#7a7761;fill-opacity:1;fill-rule:evenodd;stroke:none;stroke-width:0.13333333"
         id="path38" />
      <path
         inkscape:connector-curvature="0"
         d="m 253.99733,62.094681 c -1.624,-1.101334 -0.164,-0.438667 -2.652,-1.104 -15.64134,-4.185333 -45.01334,-3.058667 -58.90533,-5.124 2.11333,10.232 19.39466,14.026666 28.65599,14.472 10.716,0.515999 13.24,2.603999 18.58667,-0.878667 4.16267,-2.712 9.208,-5.461333 14.31467,-7.365333"
         style="fill:#7a7761;fill-opacity:1;fill-rule:evenodd;stroke:none;stroke-width:0.13333333"
         id="path40" />
      <path
         inkscape:connector-curvature="0"
         d="m 266.86799,135.67601 c 3.48534,-2.19466 8.37734,-14.7 26.848,-13.02266 l 1.552,-12.02667 c -9.99066,-0.97333 -18.252,1.06 -25.22933,5.732 -5.11067,3.42133 -14.56667,14.196 -3.17067,19.31733"
         style="fill:#7a7761;fill-opacity:1;fill-rule:evenodd;stroke:none;stroke-width:0.13333333"
         id="path42" />
      <path
         inkscape:connector-curvature="0"
         d="m 279.10399,142.03335 c 4.2,-3.49734 5.91334,-7.91867 16.87734,-5.06667 l -2.5,-12.99467 c -19.664,-1.39333 -25.98134,12.096 -14.37734,18.06134"
         style="fill:#7a7761;fill-opacity:1;fill-rule:evenodd;stroke:none;stroke-width:0.13333333"
         id="path44" />
      <path
         inkscape:connector-curvature="0"
         d="m 330.09999,98.24268 c 4.02533,9.53867 11.66933,12.37867 22.932,8.51733 2.172,-4.13866 1.36133,-7.663997 -2.43467,-10.575997 -2.00266,-0.309333 -6.588,-3.490666 -13.75866,-9.548 -6.49467,1.382667 -8.74133,5.250667 -6.73867,11.606667"
         style="fill:#7a7761;fill-opacity:1;fill-rule:evenodd;stroke:none;stroke-width:0.13333333"
         id="path46" />
      <path
         inkscape:connector-curvature="0"
         d="m 205.53866,107.82268 c 3.21067,-8.065334 8.03067,-15.713333 14.456,-22.942667 -11.31467,-0.164 -22.11733,0.568 -32.40933,2.186667 l -1.456,4.232 -1.65467,4.813333 -3.08266,-4.050666 -2.56934,-3.376 c -12.10533,2.58 -23.46,6.468 -34.06533,11.660003 l -0.092,4.312 -0.10667,5.088 -4.17066,-2.916 -3.396,-2.372 c -10.45974,5.968 -20.13627,13.30266 -29.02894,22 l 1.33854,4.136 1.5672,4.84 -4.89694,-1.38534 -4.1916,-1.18666 c -7.689596,8.42933 -14.741729,17.96933 -21.155195,28.61999 l 2.378533,3.912 2.645333,4.34667 -5.0844,-0.21467 -4.444266,-0.188 c -1.676534,3.06934 -3.304667,6.22134 -4.8848,9.45867 -3.2152,8.14667 -5.7672,16.20133 -7.658933,24.16 l 3.199466,2.62133 3.938,3.22267 -4.868133,1.484 -4.0552,1.236 c -2.45,13.65467 -2.920933,27.02933 -1.411467,40.12267 l 4.040134,1.51733 4.764,1.78533 -4.133334,2.96934 -3.368266,2.42133 c 2.3808,12.924 6.727066,25.57067 13.039066,37.93733 l 4.1172,-0.0827 5.087067,-0.104 -2.740134,4.28934 -2.278666,3.56533 c 5.898933,10.13867 13.144799,20.08667 21.737465,29.844 l 4.13653,-1.22133 4.87907,-1.44267 -1.51147,4.86 -1.29786,4.17333 c 9.5208,8.49067 20.29173,15.46267 31.83266,20.83334 l 3.63334,-2.944 3.95066,-3.204 0.47067,5.06666 0.43333,4.688 c 14.068,5.436 29.052,8.59867 44.15734,9.35067 l 4.63733,-8.66933 4.708,8.82666 c 15.824,-0.25866 31.60266,-3.18666 46.42533,-8.94533 l 0.38933,-4.672 0.42,-5.072 3.984,3.168 3.68,2.92533 c 14.212,-6.75733 27.32534,-16.296 38.46534,-28.76533 l -1.67334,-4.144 -1.904,-4.72 4.98134,1.03733 4.33733,0.904 c 9.49467,-12.32133 17.228,-27.092 22.524,-44.44933 l -3.44133,-3.00533 -3.83334,-3.34533 4.912,-1.32934 4.57467,-1.23733 c 1.828,-16.64133 1.19333,-32.55333 -1.84933,-47.32 l -4.27067,-1.152 -4.91333,-1.324 3.83066,-3.34933 3.25467,-2.84667 c -4.06667,-14.532 -10.62133,-27.78933 -19.61467,-39.33067 l -4.42133,0.91867 -4.98267,1.03467 1.90667,-4.71734 1.66267,-4.11333 c -9.696,-10.5 -21.67867,-19.29733 -35.908,-25.98666 l -3.436,2.876 -3.90134,3.26666 -0.54933,-5.05866 -0.508,-4.68267 c -0.532,-0.20667 -1.06667,-0.412 -1.604,-0.61333 -15.33733,-4.004 -30.36267,-5.30934 -44.53067,-4.132 l -1.74266,4.44266 -1.86,4.73734 -2.90533,-4.17734 -2.69334,-3.87066 c -14.73866,2.41866 -28.35733,7.63066 -40.18533,15.37866 l 0.62133,4.784 0.65734,5.04533 -4.56134,-2.25733 -4.24666,-2.10133 c -11.16934,8.97733 -20.34427,20.50533 -26.82494,34.31066 l 3.0364,3.59067 3.2876,3.884 -5.0568,0.57467 -4.76413,0.544 c -5.22133,15.27333 -7.03173,30.184 -5.4828,44.25733 l 4.39333,1.544 4.80094,1.684 -4.06974,3.05733 -3.6464,2.73867 c 3.4104,15.544 11.1448,29.872 23.13987,42.288 l 4.44,-1.404 4.84933,-1.53734 -1.41466,4.888 -1.25734,4.33067 c 3.624,3.156 7.55467,6.164 11.792,9.01067 11.14534,6.88533 23.632,10.76133 36.24534,11.712 l 2.33466,-4.364 2.39867,-4.48534 2.39867,4.488 2.41199,4.53067 c 18.07334,-0.74667 35.776,-7.484 49.532,-19.964 l -1.284,-4.34 -1.44266,-4.88 4.85866,1.512 4.14667,1.288 c 7.65867,-8.836 13.59467,-19.852 16.96,-32.992 0.94,-5.99066 1.31867,-11.804 1.12933,-17.39066 l -4.56533,-1.86267 -4.71333,-1.92 4.21466,-2.852 4.164,-2.816 c -2.516,-15.68533 -10.06666,-29.13733 -22.94,-39.064 l -4.14,2.26933 -4.46266,2.44534 0.444,-5.06934 0.42266,-4.80933 c -4.08,-2.352 -8.56666,-4.42133 -13.464,-6.17733 -11.69333,-2.34934 -22.15466,-1.64534 -31.11066,1.18666 l -0.42533,4.50134 -0.476,5.06533 -3.94934,-3.212 -3.53866,-2.87867 c -15.38534,8.04 -24.73067,22.97467 -25.972,38.132 l 4.23866,2.06934 4.57334,2.23066 -4.396,2.564 -4.14134,2.416 c 1.632,11.296 8.11467,21.94267 20.348,29.07067 19.312,9.04667 42.32,-7.60133 34.31733,-23.31067 -2.508,7.38 -7.07733,11.35334 -12.01466,12.56134 -2.41867,0.59333 -4.91067,0.51466 -7.28267,-0.15867 -2.34666,-0.66533 -4.58533,-1.91333 -6.52133,-3.66933 -4.852,-4.39867 -7.82,-11.99467 -5.83333,-21.524 0.70933,-4.99734 2.40933,-9.25467 4.82933,-12.728 2.936,-4.21467 6.92933,-7.272 11.49333,-9.09334 4.53067,-1.808 9.61067,-2.388 14.764,-1.66666 5.10267,0.71466 10.27733,2.70133 15.05467,6.02933 l 0.0267,0.02 c 15.54267,11.27467 20.76667,26.56933 18.58,40.99333 -1.048,6.92267 -3.81866,13.64134 -7.98266,19.60934 -4.152,5.948 -9.688,11.14666 -16.28134,15.05066 -16.20533,9.59333 -38.80666,11.424 -62.96266,-2.56666 l -0.0853,-0.0533 c -8.62667,-5.74666 -15.35867,-12.91333 -20.2,-20.91466 -6.616,-10.936 -9.69867,-23.43067 -9.26,-35.99334 0.43733,-12.552 4.38933,-25.164 11.83866,-36.34666 6.01334,-9.02534 14.29867,-17.12134 24.84934,-23.504 l 0.0787,-0.04 c 24.584,-13.12267 48.30933,-14.092 68.56267,-6.944 10.324,3.64266 19.736,9.396 27.89066,16.72133 8.13334,7.30533 15.02267,16.18933 20.32,26.11467 12.53734,23.488 16.14134,52.80666 6.23867,80.864 l -0.02,0.0467 c -0.76933,1.99867 -1.6,3.928 -2.48533,5.78267 -10.65734,22.32933 -31.29467,39.66133 -56.08934,48.764 -24.75066,9.088 -53.66666,9.98666 -80.93999,-0.52667 -2.76934,-1.06667 -5.48534,-2.23333 -8.14134,-3.5 l 0.003,-0.004 c -27.22453,-12.19067 -45.37027,-33.89333 -54.663999,-59.304 -7.4996,-20.508 -9.226133,-43.424 -5.296933,-65.684 3.928666,-22.26133 13.513602,-43.88533 28.632802,-61.80533 20.06013,-23.77466 49.85213,-41.01866 89.08813,-44.572 0.0787,-0.29466 0.15866,-0.592 0.24533,-0.89333 z m 69.004,138.33733 c -0.12667,-1.90533 -0.32133,-3.78267 -0.58667,-5.62933 l 0.368,3.53466 z m -58.94,0.336 c -6.23333,3.64267 -12.47733,0.544 -12.98267,-6.94133 0.516,-9.18134 8.95334,-15.02 17.65334,-12.41067 14.17866,5.96133 18.40666,22.808 11.87466,39.116 -13.46266,19.292 -32.04133,23.75733 -55.73866,13.39733 -19.61333,-12.25333 -28.75333,-30.69866 -23.29867,-58.29333 9.85467,-28.63067 29.18267,-43.41733 57.98267,-44.35867 36.54266,-0.452 60.61866,18.48667 72.228,56.816 6.86,33.076 -2.28134,60.37867 -27.42134,81.90667 -34.516,24.30266 -69.22666,27.588 -104.13066,9.85866 -36.11573,-21.56 -53.441199,-54.71866 -51.976132,-99.47199 6.794262,-49.56667 33.918802,-82.18533 81.370802,-97.85867 6.47466,-2.184 14.95733,-3.67733 25.45066,-4.48133 -2.47067,-1.976 -3.17467,-5.84133 -2.112,-11.596 -37.716,3.68267 -66.376,20.36933 -85.7172,43.29333 -14.71773,17.444 -24.050529,38.50667 -27.879196,60.20267 -3.8292,21.69466 -2.154666,44.008 5.139067,63.952 8.997329,24.59999 26.558799,45.60533 52.901329,57.38933 l 0.0387,0.0133 c 2.652,1.26533 5.288,2.4 7.90267,3.408 26.46133,10.19867 54.52933,9.324 78.55999,0.5 23.98534,-8.808 43.928,-25.528 54.196,-47.044 0.87734,-1.836 1.67067,-3.67066 2.376,-5.49866 9.56934,-27.11867 6.08667,-55.45334 -6.02933,-78.152 -5.10533,-9.56667 -11.752,-18.13467 -19.60533,-25.18934 -7.83067,-7.03466 -16.85867,-12.556 -26.752,-16.04666 -19.388,-6.84267 -42.13867,-5.89867 -65.772,6.692 -10.108,6.11733 -18.03467,13.85733 -23.776,22.47333 -7.10267,10.66 -10.868,22.66133 -11.284,34.588 -0.416,11.91467 2.508,23.76667 8.784,34.14 4.584,7.57733 10.96133,14.36667 19.13067,19.81733 22.92,13.256 44.25733,11.57733 59.49999,2.55334 6.18134,-3.65867 11.36134,-8.52 15.236,-14.072 3.86,-5.53334 6.42934,-11.76134 7.40134,-18.18 2.00533,-13.236 -2.832,-27.30267 -17.192,-37.732 -4.33467,-3.02 -9.004,-4.81867 -13.58534,-5.46 -4.58133,-0.64267 -9.07466,-0.13467 -13.05733,1.45466 -3.948,1.57467 -7.40666,4.22667 -9.95866,7.88934 -2.13867,3.07066 -3.64267,6.85333 -4.268,11.31333 l -0.02,0.112 c -1.73467,8.244 0.72,14.71733 4.776,18.39467 1.54133,1.39733 3.31466,2.38933 5.17066,2.91466 1.832,0.51867 3.73867,0.58267 5.576,0.13334 3.7,-0.90667 7.18133,-3.92667 9.308,-9.54267"
         style="fill:#7a7761;fill-opacity:1;fill-rule:evenodd;stroke:none;stroke-width:0.13333333"
         id="path48" />
      <path
         inkscape:connector-curvature="0"
         d="M 106.62186,375.28934 H 90.046398 l -3.266667,3.34667 c -0.903733,0.744 -1.780266,1.47333 -2.630266,2.192 -0.85,0.71733 -1.806267,1.44666 -2.868267,2.19066 -0.956133,0.63734 -1.8864,1.248 -2.789467,1.83334 -0.902666,0.584 -1.886,1.168 -2.948533,1.75333 -1.062533,0.53067 -2.124933,1.00933 -3.187466,1.43333 -1.062534,0.42534 -2.2312,0.824 -3.506267,1.196 0.796933,-1.00933 1.6068,-1.92666 2.4308,-2.74933 0.823333,-0.824 1.606667,-1.68667 2.3504,-2.59067 0.85,-0.74266 1.726666,-1.47333 2.630266,-2.19066 0.902667,-0.71734 1.8588,-1.39467 2.868267,-2.032 0.956267,-0.69067 1.899467,-1.30134 2.8292,-1.83334 0.9296,-0.53066 1.925467,-1.08933 2.988533,-1.67333 l 1.5932,-0.876 h -9.8016 l -3.187466,3.34667 c -0.902667,0.744 -1.779733,1.47333 -2.629733,2.192 -0.85,0.71733 -1.7792,1.44666 -2.789067,2.19066 -0.956267,0.63734 -1.925467,1.248 -2.9088,1.83334 -0.982267,0.584 -2.0052,1.168 -3.067733,1.75333 -1.009334,0.53067 -2.032267,1.00933 -3.068267,1.43333 -1.035866,0.42534 -2.164533,0.824 -3.3864,1.196 0.743734,-1.00933 1.500534,-1.92666 2.271334,-2.74933 0.770266,-0.824 1.6068,-1.68667 2.509866,-2.59067 0.796933,-0.74266 1.646933,-1.47333 2.55,-2.19066 0.9032,-0.71734 1.859467,-1.39467 2.8688,-2.032 0.903067,-0.69067 1.8328,-1.30134 2.789067,-1.83334 0.956266,-0.53066 1.966133,-1.08933 3.028133,-1.67333 l 1.594267,-0.876 h -9.802134 l -3.107733,3.34667 c -0.9032,0.744 -1.793333,1.47333 -2.669866,2.192 -0.876,0.71733 -1.8192,1.44666 -2.828667,2.19066 -0.956267,0.63734 -1.9124,1.248 -2.868667,1.83334 -0.956266,0.584 -1.965733,1.168 -3.028133,1.75333 -2.019333,1.06133 -4.197466,1.93867 -6.5344,2.62933 0.743734,-1.00933 1.514,-1.92666 2.310934,-2.74933 0.7968,-0.824 1.620266,-1.68667 2.470266,-2.59067 0.85,-0.74266 1.713067,-1.47333 2.590133,-2.19066 0.876,-0.71734 1.792667,-1.39467 2.748934,-2.032 0.956266,-0.69067 1.9256,-1.30134 2.9084,-1.83334 0.983333,-0.53066 2.005733,-1.08933 3.068133,-1.67333 l 1.514133,-0.876 h -9.721866 l -3.2672,3.34667 c -0.903067,0.744 -1.7932,1.47333 -2.669733,2.192 -0.876667,0.71733 -1.845867,1.44666 -2.9084,2.19066 -1.7,1.276 -3.613067,2.47067 -5.738,3.58667 -1.009334,0.53067 -2.045334,1.00933 -3.107867,1.43333 -1.0624,0.42534 -2.230666,0.824 -3.506266,1.196 0.85,-1.00933 1.660533,-1.92666 2.4308,-2.74933 0.770266,-0.824 1.5536,-1.68667 2.351066,-2.59067 0.902533,-0.74266 1.792667,-1.47333 2.6692,-2.19066 0.876533,-0.71734 1.819333,-1.39467 2.8292,-2.032 0.956267,-0.69067 1.912533,-1.30134 2.8688,-1.83334 0.956133,-0.53066 1.9656,-1.08933 3.028133,-1.67333 l 1.514,-0.876 H 33.786399 v 0.47733 c 0,0.42534 -0.03947,0.87734 -0.1192,1.35467 -0.07973,0.47867 -0.226,0.93067 -0.438533,1.35467 -0.212,0.58533 -0.517733,1.12933 -0.916133,1.63333 -0.398534,0.50533 -0.8636,0.97067 -1.394267,1.396 -0.531867,0.424 -1.049467,0.796 -1.554267,1.11467 -0.504666,0.31866 -1.102,0.532 -1.7932,0.63866 -0.7968,0.26534 -1.620266,0.39734 -2.470266,0.39734 -0.2656,0 -0.664134,-0.0533 -1.1948,-0.15867 0.424533,-0.58533 0.809866,-1.10267 1.1552,-1.55467 0.345333,-0.45066 0.730266,-0.86266 1.1552,-1.23466 l 2.152133,-2.232 c 0.371867,-0.37067 0.7568,-0.69067 1.1552,-0.956 0.3984,-0.26534 0.836933,-0.53067 1.315067,-0.796 l 0.397866,-0.55867 c -0.743733,0.26533 -1.5004,0.42533 -2.2708,0.47867 -0.770266,0.0533 -1.5536,0.08 -2.351066,0.08 -0.743734,0 -1.487467,-0.0267 -2.230667,-0.08 -0.744267,-0.0533 -1.5412,-0.21334 -2.3912,-0.47867 -0.743733,-0.26533 -1.487467,-0.544 -2.2312,-0.836 -0.743733,-0.292 -1.540133,-0.73067 -2.390666,-1.31467 0.850533,-0.42533 1.646933,-0.81066 2.390666,-1.156 0.743733,-0.34533 1.487467,-0.624 2.2312,-0.83733 0.85,-0.26533 1.646933,-0.424 2.3912,-0.47733 0.7432,-0.0533 1.486933,-0.08 2.230667,-0.08 0.797466,0 1.5808,0.0267 2.351066,0.08 0.7704,0.0533 1.527067,0.212 2.2708,0.47733 l -0.397866,-0.47733 c -0.478134,-0.31867 -0.916667,-0.61067 -1.315067,-0.87734 -0.3984,-0.26533 -0.783333,-0.53066 -1.1552,-0.796 l -2.152133,-2.232 -2.3104,-2.78933 c 0.478133,-0.15867 0.982266,-0.23867 1.514,-0.23867 0.371466,0 0.743333,0.0267 1.1152,0.08 0.371866,0.0533 0.7172,0.13334 1.035866,0.23867 0.6912,0.16 1.288534,0.38533 1.7932,0.67733 0.5048,0.292 1.0224,0.65067 1.554267,1.076 0.530667,0.47867 0.995733,0.96934 1.394267,1.47467 0.3984,0.504 0.704133,1.076 0.916133,1.71333 0.212533,0.31867 0.3588,0.756 0.438533,1.31467 0.07973,0.55733 0.1192,1.04933 0.1192,1.47467 0.05373,0.052 0.132933,0.0787 0.239067,0.0787 h 15.858399 c -0.85,-0.26533 -1.633866,-0.57066 -2.351066,-0.916 -0.716667,-0.34533 -1.447333,-0.73066 -2.191067,-1.156 -1.062533,-0.584 -2.072,-1.15466 -3.028133,-1.712 -0.956267,-0.55866 -1.912533,-1.18266 -2.8688,-1.87333 -1.009867,-0.63733 -1.952667,-1.31467 -2.8292,-2.032 -0.876533,-0.71733 -1.766667,-1.448 -2.6692,-2.192 -0.797466,-0.796 -1.5808,-1.63333 -2.351066,-2.50933 -0.770267,-0.87734 -1.5808,-1.82 -2.4308,-2.82934 2.443866,0.69067 4.648533,1.62 6.614133,2.78934 1.062533,0.47733 2.0724,1.00933 3.028666,1.59333 0.956267,0.584 1.859334,1.196 2.709334,1.83333 1.062533,0.744 2.031733,1.47334 2.9084,2.192 0.876533,0.716 1.766666,1.44667 2.669733,2.19067 0.796933,0.69067 1.5536,1.42133 2.271333,2.192 0.716667,0.76933 1.4208,1.58 2.111467,2.42933 h 11.634399 c -0.85,-0.26533 -1.633333,-0.57066 -2.350533,-0.916 -0.717733,-0.34533 -1.447866,-0.73066 -2.191733,-1.156 -1.0624,-0.584 -2.0848,-1.15466 -3.068133,-1.712 -0.9828,-0.55866 -1.952134,-1.18266 -2.9084,-1.87333 -0.956267,-0.63733 -1.872934,-1.31467 -2.748934,-2.032 -0.877066,-0.71733 -1.740133,-1.448 -2.590133,-2.192 -1.753066,-1.64667 -3.3468,-3.42667 -4.7812,-5.33867 1.221867,0.372 2.364,0.784 3.426534,1.23467 1.062533,0.452 2.098399,0.97067 3.107866,1.55467 1.0624,0.47733 2.071867,1.00933 3.028133,1.59333 0.956267,0.584 1.9124,1.196 2.868667,1.83333 1.009467,0.744 1.952667,1.47334 2.828667,2.192 0.876533,0.716 1.766666,1.44667 2.669866,2.19067 0.743733,0.69067 1.4744,1.42133 2.191067,2.192 0.717733,0.76933 1.421333,1.58 2.112,2.42933 h 11.634933 c -0.903734,-0.26533 -1.7,-0.57066 -2.3912,-0.916 -0.690667,-0.34533 -1.4344,-0.73066 -2.2312,-1.156 -1.062,-0.584 -2.071867,-1.15466 -3.028133,-1.712 -0.956267,-0.55866 -1.886,-1.18266 -2.789067,-1.87333 -1.009333,-0.63733 -1.9656,-1.31467 -2.8688,-2.032 -0.903067,-0.71733 -1.753067,-1.448 -2.55,-2.192 -0.903066,-0.796 -1.7396,-1.63333 -2.509866,-2.50933 -0.7708,-0.87734 -1.5276,-1.82 -2.271334,-2.82934 2.390667,0.744 4.542133,1.67334 6.454667,2.78934 1.062533,0.47733 2.085466,1.00933 3.067733,1.59333 0.983333,0.584 1.952533,1.196 2.9088,1.83333 1.009867,0.744 1.939067,1.47334 2.789067,2.192 0.85,0.716 1.727066,1.44667 2.629733,2.19067 0.743733,0.69067 1.4744,1.42133 2.1916,2.192 0.7172,0.76933 1.420933,1.58 2.112,2.42933 h 11.713599 c -0.85,-0.26533 -1.633333,-0.57066 -2.350533,-0.916 -0.7172,-0.34533 -1.474,-0.73066 -2.2708,-1.156 -1.063066,-0.584 -2.058933,-1.15466 -2.988533,-1.712 -0.929733,-0.55866 -1.872933,-1.18266 -2.8292,-1.87333 -1.009467,-0.63733 -1.9656,-1.31467 -2.868267,-2.032 -0.9036,-0.71733 -1.780266,-1.448 -2.630266,-2.192 -0.743733,-0.796 -1.527067,-1.63333 -2.3504,-2.50933 -0.824,-0.87734 -1.633867,-1.82 -2.4308,-2.82934 2.443733,0.69067 4.675066,1.62 6.693733,2.78934 1.062533,0.47733 2.045867,1.00933 2.948533,1.59333 0.903067,0.584 1.833334,1.196 2.789467,1.83333 1.062,0.744 2.018267,1.47334 2.868267,2.192 0.85,0.716 1.726533,1.44667 2.630266,2.19067 0.743733,0.69067 1.473867,1.42133 2.191067,2.192 0.7172,0.76933 1.421333,1.58 2.111466,2.42933 h 15.539596 z m 194.7568,-2.55067 h 15.53867 c 0.69066,-0.84933 1.39466,-1.66 2.112,-2.42933 0.71733,-0.77067 1.44666,-1.50133 2.19066,-2.192 0.904,-0.744 1.78,-1.47467 2.63067,-2.19067 0.84933,-0.71866 1.80667,-1.448 2.868,-2.192 0.956,-0.63733 1.88667,-1.24933 2.78933,-1.83333 0.904,-0.584 1.88667,-1.116 2.94934,-1.59333 2.01866,-1.16934 4.24933,-2.09867 6.69333,-2.78934 -0.79734,1.00934 -1.60667,1.952 -2.43067,2.82934 -0.824,0.876 -1.60667,1.71333 -2.35067,2.50933 -0.85066,0.744 -1.72666,1.47467 -2.62933,2.192 -0.904,0.71733 -1.86,1.39467 -2.86933,2.032 -0.956,0.69067 -1.89867,1.31467 -2.82933,1.87333 -0.92934,0.55734 -1.92534,1.128 -2.988,1.712 -0.796,0.42534 -1.55334,0.81067 -2.27067,1.156 -0.71733,0.34534 -1.50133,0.65067 -2.35067,0.916 h 11.71334 c 0.69066,-0.84933 1.39466,-1.66 2.112,-2.42933 0.71733,-0.77067 1.44799,-1.50133 2.19199,-2.192 0.90267,-0.744 1.77867,-1.47467 2.62934,-2.19067 0.84933,-0.71866 1.78,-1.448 2.78933,-2.192 0.956,-0.63733 1.92533,-1.24933 2.908,-1.83333 0.98267,-0.584 2.00533,-1.116 3.068,-1.59333 1.91333,-1.116 4.064,-2.04534 6.456,-2.78934 -0.74533,1.00934 -1.50133,1.952 -2.272,2.82934 -0.77067,0.876 -1.60667,1.71333 -2.51067,2.50933 -0.796,0.744 -1.64666,1.47467 -2.54933,2.192 -0.904,0.71733 -1.86,1.39467 -2.86933,2.032 -0.90267,0.69067 -1.832,1.31467 -2.78934,1.87333 -0.956,0.55734 -1.96533,1.128 -3.028,1.712 -0.796,0.42534 -1.54,0.81067 -2.23066,1.156 -0.69067,0.34534 -1.488,0.65067 -2.39067,0.916 h 11.63467 c 0.69066,-0.84933 1.39333,-1.66 2.112,-2.42933 0.716,-0.77067 1.44666,-1.50133 2.19066,-2.192 0.90267,-0.744 1.79334,-1.47467 2.66934,-2.19067 0.876,-0.71866 1.82,-1.448 2.82933,-2.192 0.956,-0.63733 1.912,-1.24933 2.868,-1.83333 0.95733,-0.584 1.96667,-1.116 3.02933,-1.59333 1.00934,-0.584 2.04534,-1.10267 3.10667,-1.55467 1.06267,-0.45067 2.20533,-0.86267 3.42667,-1.23467 -1.43334,1.912 -3.028,3.692 -4.78,5.33867 -0.85067,0.744 -1.71334,1.47467 -2.59067,2.192 -0.876,0.71733 -1.79333,1.39467 -2.74933,2.032 -0.956,0.69067 -1.92534,1.31467 -2.908,1.87333 -0.98267,0.55734 -2.00534,1.128 -3.068,1.712 -0.744,0.42534 -1.47467,0.81067 -2.192,1.156 -0.71734,0.34534 -1.5,0.65067 -2.35067,0.916 h 11.63467 c 0.69066,-0.84933 1.39466,-1.66 2.11066,-2.42933 0.71867,-0.77067 1.47467,-1.50133 2.272,-2.192 0.90267,-0.744 1.79334,-1.47467 2.66934,-2.19067 0.87733,-0.71866 1.84666,-1.448 2.90933,-2.192 0.84933,-0.63733 1.75333,-1.24933 2.70933,-1.83333 0.956,-0.584 1.96534,-1.116 3.028,-1.59333 1.96534,-1.16934 4.17067,-2.09867 6.61467,-2.78934 -0.85067,1.00934 -1.66133,1.952 -2.43067,2.82934 -0.77066,0.876 -1.55466,1.71333 -2.352,2.50933 -0.90266,0.744 -1.792,1.47467 -2.66933,2.192 -0.876,0.71733 -1.81867,1.39467 -2.82933,2.032 -0.956,0.69067 -1.912,1.31467 -2.868,1.87333 -0.956,0.55734 -1.96534,1.128 -3.028,1.712 -0.744,0.42534 -1.47467,0.81067 -2.192,1.156 -0.716,0.34534 -1.5,0.65067 -2.35067,0.916 h 15.85867 c 0.10666,0 0.18533,-0.0267 0.23866,-0.0787 0,-0.42534 0.04,-0.91734 0.12,-1.47467 0.0787,-0.55867 0.22534,-0.996 0.43867,-1.31467 0.212,-0.63733 0.51733,-1.20933 0.916,-1.71333 0.39733,-0.50533 0.86267,-0.996 1.39333,-1.47467 0.532,-0.42533 1.05067,-0.784 1.55467,-1.076 0.504,-0.292 1.10267,-0.51733 1.79333,-0.67733 0.31867,-0.10533 0.664,-0.18533 1.036,-0.23867 0.372,-0.0533 0.744,-0.08 1.116,-0.08 0.53067,0 1.036,0.08 1.51334,0.23867 l -2.31067,2.78933 -2.152,2.232 c -0.372,0.26534 -0.75733,0.53067 -1.156,0.796 -0.39733,0.26667 -0.836,0.55867 -1.31467,0.87734 l -0.39733,0.47733 c 0.74267,-0.26533 1.5,-0.424 2.27067,-0.47733 0.77066,-0.0533 1.55333,-0.08 2.35066,-0.08 0.744,0 1.488,0.0267 2.232,0.08 0.74267,0.0533 1.54,0.212 2.38934,0.47733 0.744,0.21333 1.488,0.492 2.232,0.83733 0.744,0.34534 1.54,0.73067 2.39066,1.156 -0.85066,0.584 -1.64666,1.02267 -2.39066,1.31467 -0.744,0.292 -1.488,0.57067 -2.232,0.836 -0.84934,0.26533 -1.64667,0.42533 -2.38934,0.47867 -0.744,0.0533 -1.488,0.08 -2.232,0.08 -0.79733,0 -1.58,-0.0267 -2.35066,-0.08 -0.77067,-0.0533 -1.528,-0.21334 -2.27067,-0.47867 l 0.39733,0.55867 c 0.47867,0.26533 0.91734,0.53066 1.31467,0.796 0.39867,0.26533 0.784,0.58533 1.156,0.956 l 2.152,2.232 c 0.42533,0.372 0.81067,0.784 1.15467,1.23466 0.34533,0.452 0.73066,0.96934 1.156,1.55467 -0.53067,0.10533 -0.92934,0.15867 -1.19467,0.15867 -0.85067,0 -1.67333,-0.132 -2.47067,-0.39734 -0.69066,-0.10666 -1.28933,-0.32 -1.79333,-0.63866 -0.504,-0.31867 -1.02267,-0.69067 -1.55467,-1.11467 -0.53066,-0.42533 -0.996,-0.89067 -1.39333,-1.396 -0.39867,-0.504 -0.704,-1.048 -0.916,-1.63333 -0.21333,-0.424 -0.36,-0.876 -0.43867,-1.35467 -0.08,-0.47733 -0.12,-0.92933 -0.12,-1.35467 v -0.47733 h -13.06933 l 1.51467,0.876 c 1.06266,0.584 2.072,1.14267 3.028,1.67333 0.956,0.532 1.912,1.14267 2.868,1.83334 1.01066,0.63733 1.95333,1.31466 2.82933,2.032 0.87733,0.71733 1.76667,1.448 2.66933,2.19066 0.79734,0.904 1.58134,1.76667 2.352,2.59067 0.76934,0.82267 1.58,1.74 2.43067,2.74933 -1.276,-0.372 -2.444,-0.77066 -3.50667,-1.196 -1.06266,-0.424 -2.09866,-0.90266 -3.108,-1.43333 -2.17866,-1.116 -4.09066,-2.31067 -5.73733,-3.58667 -1.06267,-0.744 -2.032,-1.47333 -2.90933,-2.19066 -0.876,-0.71867 -1.76667,-1.448 -2.66934,-2.192 l -3.26666,-3.34667 h -9.72267 l 1.51467,0.876 c 1.06266,0.584 2.08533,1.14267 3.068,1.67333 0.98266,0.532 1.952,1.14267 2.908,1.83334 0.956,0.63733 1.87333,1.31466 2.74933,2.032 0.87733,0.71733 1.74,1.448 2.59067,2.19066 0.84933,0.904 1.672,1.76667 2.47066,2.59067 0.796,0.82267 1.56667,1.74 2.30934,2.74933 -2.336,-0.69066 -4.51467,-1.568 -6.53334,-2.62933 -1.06266,-0.58533 -2.072,-1.16933 -3.02933,-1.75333 -0.956,-0.58534 -1.912,-1.196 -2.868,-1.83334 -1.00933,-0.744 -1.95333,-1.47333 -2.82933,-2.19066 -0.876,-0.71867 -1.76667,-1.448 -2.66934,-2.192 l -3.108,-3.34667 h -9.80133 l 1.59333,0.876 c 1.06267,0.584 2.072,1.14267 3.028,1.67333 0.95734,0.532 1.88667,1.14267 2.78934,1.83334 1.00933,0.63733 1.96533,1.31466 2.86933,2.032 0.90267,0.71733 1.75333,1.448 2.54933,2.19066 0.904,0.904 1.74,1.76667 2.51067,2.59067 0.77067,0.82267 1.52667,1.74 2.272,2.74933 -1.22267,-0.372 -2.352,-0.77066 -3.388,-1.196 -1.036,-0.424 -2.05867,-0.90266 -3.068,-1.43333 -1.06267,-0.58533 -2.08533,-1.16933 -3.068,-1.75333 -0.98267,-0.58534 -1.952,-1.196 -2.908,-1.83334 -1.00933,-0.744 -1.94,-1.47333 -2.78933,-2.19066 -0.85067,-0.71867 -1.72667,-1.448 -2.62934,-2.192 l -3.18799,-3.34667 h -9.80134 l 1.59334,0.876 c 1.06266,0.584 2.05866,1.14267 2.988,1.67333 0.93066,0.532 1.87333,1.14267 2.82933,1.83334 1.00933,0.63733 1.96533,1.31466 2.86933,2.032 0.90267,0.71733 1.77867,1.448 2.62933,2.19066 0.744,0.904 1.52667,1.76667 2.35067,2.59067 0.824,0.82267 1.63333,1.74 2.43067,2.74933 -1.27467,-0.372 -2.444,-0.77066 -3.50667,-1.196 -1.06267,-0.424 -2.12533,-0.90266 -3.18666,-1.43333 -1.06267,-0.58533 -2.04534,-1.16933 -2.94934,-1.75333 -0.90266,-0.58534 -1.83333,-1.196 -2.78933,-1.83334 -1.06133,-0.744 -2.01867,-1.47333 -2.868,-2.19066 -0.85067,-0.71867 -1.72667,-1.448 -2.63067,-2.192 l -3.26666,-3.34667 h -16.57467 v -2.55067"
         style="fill:#7a7761;fill-opacity:1;fill-rule:nonzero;stroke:none;stroke-width:0.13333333"
         id="path54" />
    </g>
  </g>
</svg>
