<?xml version="1.0" encoding="UTF-8" standalone="no"?>
<!-- Created with Inkscape (http://www.inkscape.org/) -->

<svg
   xmlns:dc="http://purl.org/dc/elements/1.1/"
   xmlns:cc="http://creativecommons.org/ns#"
   xmlns:rdf="http://www.w3.org/1999/02/22-rdf-syntax-ns#"
   xmlns:svg="http://www.w3.org/2000/svg"
   xmlns="http://www.w3.org/2000/svg"
   xmlns:sodipodi="http://sodipodi.sourceforge.net/DTD/sodipodi-0.dtd"
   xmlns:inkscape="http://www.inkscape.org/namespaces/inkscape"
   width="107.78922mm"
   height="49.103268mm"
   viewBox="0 0 107.78922 49.103268"
   version="1.1"
   id="svg3160"
   inkscape:version="0.92.4 (5da689c313, 2019-01-14)"
   sodipodi:docname="dibujo3.svg">
  <defs
     id="defs3154" />
  <sodipodi:namedview
     id="base"
     pagecolor="#ffffff"
     bordercolor="#666666"
     borderopacity="1.0"
     inkscape:pageopacity="0.0"
     inkscape:pageshadow="2"
     inkscape:zoom="1.4142136"
     inkscape:cx="234.65977"
     inkscape:cy="124.68403"
     inkscape:document-units="mm"
     inkscape:current-layer="layer1"
     showgrid="false"
     fit-margin-top="0"
     fit-margin-left="0"
     fit-margin-right="0"
     fit-margin-bottom="0"
     inkscape:window-width="1920"
     inkscape:window-height="1017"
     inkscape:window-x="-8"
     inkscape:window-y="-8"
     inkscape:window-maximized="1"
     inkscape:pagecheckerboard="true" />
  <metadata
     id="metadata3157">
    <rdf:RDF>
      <cc:Work
         rdf:about="">
        <dc:format>image/svg+xml</dc:format>
        <dc:type
           rdf:resource="http://purl.org/dc/dcmitype/StillImage" />
        <dc:title></dc:title>
      </cc:Work>
    </rdf:RDF>
  </metadata>
  <g
     inkscape:label="Capa 1"
     inkscape:groupmode="layer"
     id="layer1"
     transform="translate(304.11485,-128.81741)">
    <path
       id="path50"
       style="fill:#7a7761;fill-opacity:1;fill-rule:nonzero;stroke:none;stroke-width:0.03527778"
       d="m -285.32419,138.55655 c 0,-7.84931 0,-9.04134 0.31983,-9.21561 v -0.14535 h -3.19786 v 0.14535 c 0.378,0.17427 0.378,1.3663 0.378,9.06991 v 7.7331 h -0.0583 c -1.22093,-1.56972 -2.15124,-2.64541 -3.3431,-4.04093 -2.03511,-2.35479 -5.40731,-6.30837 -11.27981,-13.19847 h -0.34878 v 13.05313 c 0,8.40168 0,9.59354 -0.378,9.76803 v 0.14538 h 3.25604 v -0.14538 c -0.37786,-0.17449 -0.37786,-1.36635 -0.37786,-9.59341 0,-4.91313 0,-6.04696 -0.0291,-7.15186 h 0.0581 c 1.42448,1.83162 2.29665,2.82011 3.60482,4.33176 2.03493,2.35479 5.34914,6.22127 11.04703,12.84965 h 0.34893 z m 16.27999,6.91892 c 1.94783,4.91296 2.41279,6.07575 2.09317,6.25024 v 0.14538 h 3.60503 v -0.14538 c -0.31996,-0.17449 -0.78492,-1.33728 -4.18641,-9.79696 l -5.26196,-13.11134 h -0.37786 l -5.40731,13.08206 c -3.51772,8.48896 -4.07003,9.68096 -4.38986,9.82624 v 0.14538 h 3.43034 v -0.14538 c -0.31958,-0.17449 0.17459,-1.33728 2.18049,-6.25024 z m -7.44224,-2.23862 0.0291,-0.11631 c 2.58737,-6.57024 2.9943,-7.58765 3.31403,-8.57613 h 0.0581 c 0.29079,0.98848 0.66865,2.00589 3.16882,8.57613 l 0.0291,0.11631 z m 32.56015,-4.6803 c 0,-7.84931 0,-9.04134 0.34855,-9.21561 v -0.14535 h -3.40113 v 0.14535 c 0.3489,0.17427 0.3489,1.3663 0.3489,8.8085 v 0.98849 h -11.45434 v -0.98849 c 0,-7.4422 0,-8.63423 0.34889,-8.8085 v -0.14535 h -3.43041 v 0.14535 c 0.37783,0.17427 0.37783,1.3663 0.37783,9.21561 v 3.40113 c 0,8.40168 0,9.59354 -0.37783,9.76803 v 0.14538 h 3.48862 v -0.14538 c -0.4071,-0.17449 -0.4071,-1.36635 -0.4071,-9.21558 v -1.01741 h 11.45434 v 1.01741 c 0,7.84923 0,9.04109 -0.37818,9.21558 v 0.14538 h 3.48862 v -0.14538 c -0.40676,-0.17449 -0.40676,-1.36635 -0.40676,-9.76803 z m 26.86192,1.83127 c 0,-6.51193 -4.76779,-11.48327 -11.27972,-11.48327 -6.80297,0 -11.89037,5.05848 -11.89037,11.77396 0,6.36668 5.02955,11.54148 11.48326,11.54148 6.8319,0 11.68683,-5.29097 11.68683,-11.80289 z m -2.87832,0.14534 c 0,5.1748 -3.63396,9.21572 -8.66316,9.21572 -4.97135,0 -8.72137,-4.12817 -8.72137,-9.18644 0,-5.20382 3.75002,-9.21561 8.66316,-9.21561 5.00027,0 8.72137,3.98286 8.72137,9.15741 z m 17.03599,4.94231 c 1.94769,4.91296 2.413,6.07575 2.09303,6.25024 v 0.14538 h 3.60504 v -0.14538 c -0.31997,-0.17449 -0.78493,-1.33728 -4.18641,-9.79696 l -5.26204,-13.11134 h -0.37782 l -5.40738,13.08206 c -3.51755,8.48896 -4.07,9.68096 -4.38961,9.82624 v 0.14538 h 3.43041 v -0.14538 c -0.31997,-0.17449 0.17462,-1.33728 2.18016,-6.25024 z m -7.44255,-2.23862 0.0293,-0.11631 c 2.58763,-6.57024 2.99438,-7.58765 3.31399,-8.57613 h 0.0582 c 0.29069,0.98848 0.66852,2.00589 3.16901,8.57613 l 0.0289,0.11631 h -6.59941"
       inkscape:connector-curvature="0" />
    <path
       id="path52"
       style="fill:#66ccce;fill-opacity:1;fill-rule:evenodd;stroke:none;stroke-width:0.03527778"
       d="m -228.65665,136.64485 c 2.14595,0 3.88549,1.73002 3.88549,3.86362 0,2.13395 -1.73954,3.86387 -3.88549,3.86387 -2.14595,0 -3.88585,-1.72992 -3.88585,-3.86387 0,-2.1336 1.7399,-3.86362 3.88585,-3.86362"
       inkscape:connector-curvature="0" />
    <path
       id="path56"
       style="fill:#7a7761;fill-opacity:1;fill-rule:nonzero;stroke:none;stroke-width:0.03527778"
       d="m -303.31338,173.98376 v 3.80642 h 1.54423 v -3.39314 h 0.261 c 0.91352,1.3378 1.65322,2.45787 2.27309,3.39314 h 1.85952 v -0.0218 c -0.0543,-0.0761 -0.40227,-0.56555 -0.64149,-0.89173 -1.76181,-2.46864 -1.89233,-2.66443 -1.96839,-2.77315 v -0.0218 c 0.17392,-0.0652 0.42404,-0.2067 0.63059,-0.36971 0.36985,-0.27189 0.91362,-0.92439 0.91362,-1.95764 0,-1.48996 -0.97882,-2.08802 -1.60955,-2.27295 -0.48948,-0.15226 -1.0331,-0.20655 -1.66396,-0.20655 -0.25011,0 -0.69591,0.0109 -0.93528,0.0218 -0.25011,0.0109 -0.50022,0.0216 -0.66338,0.0434 z m 3.28442,-2.09889 c 0,0.61998 -0.33722,0.97882 -0.64176,1.14198 -0.20657,0.1305 -0.50023,0.20659 -0.80477,0.20659 -0.10873,0 -0.21746,0 -0.29366,-0.0109 v -2.5666 c 0.098,-0.0109 0.22848,-0.0216 0.41341,-0.0216 0.79388,0 1.32678,0.44577 1.32678,1.23966 z m 3.31693,2.09889 v 3.80642 h 4.3393 v -1.38121 h -2.70813 v -2.24028 h 2.36005 v -1.3703 h -2.36005 v -2.12054 h 2.62103 v -1.37033 h -4.2522 z m 5.22016,-0.4458 c 0,2.70799 2.04445,4.38272 4.61105,4.38272 1.01148,0 1.74004,-0.1305 2.30558,-0.34795 v -3.75199 h -1.60955 v 2.57749 c -0.23936,0.0543 -0.50035,0.0652 -0.73946,0.0652 -1.66398,0 -2.81668,-1.16362 -2.81668,-2.93632 0,-1.82714 1.34838,-2.91454 3.26249,-2.91454 0.47857,0 0.89171,0.0544 1.20717,0.11959 0.21745,0.0434 0.41328,0.087 0.53287,0.14139 h 0.0327 c 0.0109,-0.63087 0.0327,-0.97881 0.0543,-1.47905 -0.27189,-0.0653 -0.55453,-0.1196 -0.84819,-0.15226 -0.33718,-0.0436 -0.68516,-0.0652 -1.10931,-0.0652 -2.89292,0 -4.88293,1.78347 -4.88293,4.35007 z m 8.44998,0.4458 v 3.80642 h 1.54435 v -3.39314 h 0.26102 c 0.91348,1.3378 1.65308,2.45787 2.27295,3.39314 h 1.85963 v -0.0218 c -0.0543,-0.0761 -0.40238,-0.56555 -0.6416,-0.89173 -1.7618,-2.46864 -1.89233,-2.66443 -1.96839,-2.77315 v -0.0218 c 0.17392,-0.0652 0.42404,-0.2067 0.63059,-0.36971 0.36985,-0.27189 0.91362,-0.92439 0.91362,-1.95764 0,-1.48996 -0.97881,-2.08802 -1.60954,-2.27295 -0.48948,-0.15226 -1.03311,-0.20655 -1.66395,-0.20655 -0.25012,0 -0.69593,0.0109 -0.93529,0.0218 -0.25012,0.0109 -0.50023,0.0216 -0.66339,0.0434 z m 3.28443,-2.09889 c 0,0.61998 -0.33722,0.97882 -0.64178,1.14198 -0.20655,0.1305 -0.50009,0.20659 -0.80475,0.20659 -0.10873,0 -0.21745,0 -0.29355,-0.0109 v -2.5666 c 0.0979,-0.0109 0.22835,-0.0216 0.41328,-0.0216 0.79389,0 1.3268,0.44577 1.3268,1.23966 z m 3.31692,2.09889 v 3.80642 h 4.33931 v -1.38121 h -2.70814 v -2.24028 h 2.36005 v -1.3703 h -2.36005 v -2.12054 h 2.62104 v -1.37033 h -4.25221 z m 9.58123,1.60969 c 0,-0.95705 -0.43533,-1.55525 -1.09855,-2.17508 -0.45685,-0.42418 -0.81562,-0.69607 -1.05491,-0.95706 -0.22835,-0.25011 -0.36975,-0.47847 -0.36975,-0.83742 0,-0.58734 0.51097,-0.94604 1.19641,-0.94604 0.18451,0 0.34784,0.0216 0.50024,0.0543 0.13053,0.0218 0.29351,0.0653 0.40217,0.10873 h 0.0219 c 0.0109,-0.73946 0.0219,-0.92439 0.0434,-1.44639 -0.27163,-0.087 -0.71755,-0.1414 -1.10913,-0.1414 -1.89237,0 -2.75156,1.16364 -2.75156,2.39258 0,0.88095 0.41338,1.48992 0.93539,2.02282 0.27189,0.26099 0.56543,0.51111 0.91352,0.80476 0.41335,0.34796 0.61972,0.66339 0.61972,1.044 0,0.63073 -0.52189,0.96794 -1.14173,0.96794 -0.35898,0 -0.67426,-0.0544 -0.91352,-0.1305 -0.1524,-0.0434 -0.28289,-0.0978 -0.41338,-0.15227 h -0.0217 c -0.0218,0.71782 -0.0326,0.89173 -0.0435,1.45727 0.36971,0.16316 1.00058,0.25012 1.52259,0.25012 1.68574,0 2.76242,-1.02223 2.76242,-2.30546 z m 9.64636,-2.09888 c 0,-2.42521 -1.80552,-4.29592 -4.30671,-4.29592 -2.56646,0 -4.49157,1.9141 -4.49157,4.37197 0,2.42522 1.90323,4.35006 4.38291,4.35006 2.56646,0 4.41537,-1.94661 4.41537,-4.41535 z m -1.67499,0.0543 c 0,1.60955 -1.08726,2.88189 -2.69699,2.88189 -1.60937,0 -2.76225,-1.28323 -2.76225,-2.87099 0,-1.63135 1.16382,-2.87115 2.75132,-2.87115 1.56598,0 2.70792,1.2507 2.70792,2.84935 z m 10.05981,2.56659 c 0.43497,1.08741 0.63077,1.57689 0.65228,1.64221 v 0.0325 h 1.80552 v -0.0325 c -0.0219,-0.0762 -0.2286,-0.5548 -1.59879,-3.78466 l -2.04434,-4.81774 h -0.2286 l -2.07716,4.81774 c -1.403,3.22986 -1.62031,3.71934 -1.65312,3.78466 v 0.0325 h 1.67499 v -0.0325 c 0.0215,-0.0653 0.22825,-0.5548 0.67416,-1.64221 z m -2.29482,-1.305 v -0.0328 c 0.65264,-1.59854 0.81562,-2.06622 0.91334,-2.4033 h 0.0109 c 0.0981,0.33708 0.26105,0.7939 0.88088,2.4033 v 0.0328 z m 5.57883,-0.82669 v 3.80642 h 4.30671 v -1.38121 h -2.63173 c -0.0434,0 -0.0434,-0.0107 -0.0434,-0.0652 v -7.03627 h -1.63159 z m 16.66098,-0.48919 c 0,-2.42521 -1.80516,-4.29592 -4.30671,-4.29592 -2.56645,0 -4.49121,1.9141 -4.49121,4.37197 0,2.42522 1.90324,4.35006 4.38256,4.35006 2.56681,0 4.41536,-1.94661 4.41536,-4.41535 z m -1.67463,0.0543 c 0,1.60955 -1.08762,2.88189 -2.69699,2.88189 -1.60972,0 -2.7626,-1.28323 -2.7626,-2.87099 0,-1.63135 1.16381,-2.87115 2.75167,-2.87115 1.56598,0 2.70792,1.2507 2.70792,2.84935 z m 2.82751,0.4349 v 3.80642 h 1.54446 v -3.39314 h 0.26071 c 0.91369,1.3378 1.65311,2.45787 2.27294,3.39314 h 1.85985 v -0.0218 c -0.0543,-0.0761 -0.40252,-0.56555 -0.6417,-0.89173 -1.76178,-2.46864 -1.8923,-2.66443 -1.9685,-2.77315 v -0.0218 c 0.17427,-0.0652 0.42404,-0.2067 0.63076,-0.36971 0.36971,-0.27189 0.9137,-0.92439 0.9137,-1.95764 0,-1.48996 -0.97861,-2.08802 -1.60973,-2.27295 -0.4893,-0.15226 -1.03293,-0.20655 -1.6637,-0.20655 -0.25012,0 -0.69603,0.0109 -0.93557,0.0218 -0.24976,0.0109 -0.49988,0.0216 -0.66322,0.0434 z m 3.28436,-2.09889 c 0,0.61998 -0.33725,0.97882 -0.6417,1.14198 -0.20673,0.1305 -0.50024,0.20659 -0.80469,0.20659 -0.10865,0 -0.21766,0 -0.29351,-0.0109 v -2.5666 c 0.0977,-0.0109 0.22825,-0.0216 0.41311,-0.0216 0.79375,0 1.32679,0.44577 1.32679,1.23966 z m 4.94842,1.01149 v -3.58884 h -1.6316 v 8.48266 h 1.6316 z m 1.20685,0.6416 c 0,2.70799 2.0447,4.38272 4.61116,4.38272 1.01141,0 1.74025,-0.1305 2.30575,-0.34795 v -3.75199 h -1.60972 v 2.57749 c -0.23919,0.0543 -0.50024,0.0652 -0.73942,0.0652 -1.66406,0 -2.81658,-1.16362 -2.81658,-2.93632 0,-1.82714 1.34831,-2.91454 3.26249,-2.91454 0.47836,0 0.89147,0.0544 1.2072,0.11959 0.21731,0.0434 0.41311,0.087 0.5327,0.14139 h 0.0328 c 0.0109,-0.63087 0.0325,-0.97881 0.0543,-1.47905 -0.27199,-0.0653 -0.55456,-0.1196 -0.84843,-0.15226 -0.33725,-0.0436 -0.68509,-0.0652 -1.10913,-0.0652 -2.89278,0 -4.88315,1.78347 -4.88315,4.35007 z m 8.45009,0.4458 v 3.80642 h 4.33951 v -1.38121 h -2.70827 v -2.24028 h 2.36008 v -1.3703 h -2.36008 v -2.12054 h 2.62114 v -1.37033 h -4.25238 z m 12.7134,-1.0874 v -3.58884 h -1.51165 v 3.43655 c 0,0.97871 0,1.31589 0.0109,1.82701 h -0.0219 c -0.51117,-0.56555 -0.94615,-1.00046 -1.41393,-1.47903 -0.73942,-0.76123 -1.8923,-1.9031 -3.89326,-3.8716 h -0.20672 v 8.56973 h 1.51165 v -3.61059 c 0,-0.84833 0,-1.1854 -0.0106,-1.60955 h 0.0106 c 0.61983,0.67426 0.9899,1.03311 1.52259,1.56598 0.73977,0.7505 1.87043,1.88145 3.79553,3.76303 h 0.20673 v -5.00269"
       inkscape:connector-curvature="0" />
    <path
       id="path58"
       style="fill:#66ccce;fill-opacity:1;fill-rule:nonzero;stroke:none;stroke-width:0.03527778"
       d="m -264.86259,155.84933 c 2.87973,0 6.15421,1.17976 9.8231,3.53053 l 3.66889,-1.97775 c 0,-0.3036 -0.30268,-0.45984 -0.89429,-0.45984 l -0.18415,-0.19943 v -0.23424 h 0.18415 l 2.15653,0.43367 1.69651,-0.43367 h 0.23636 v 0.23424 c -0.7232,0.0955 -1.07809,0.32096 -1.07809,0.65927 l 3.43182,1.97775 c 4.0767,-2.35077 7.4168,-3.53053 10.00725,-3.53053 4.2739,0 6.40397,1.39664 6.40397,4.19862 v 0.42513 c 0,2.50691 -2.62996,3.76477 -7.90292,3.76477 h -0.19721 l -0.22366,-0.22556 -0.1972,0.22556 h -1.07844 c -2.91924,0 -6.75887,-0.58123 -11.51926,-1.75231 -3.99767,1.17108 -7.6401,1.75231 -10.90118,1.75231 v -0.22556 l -0.1972,0.22556 h -0.22366 l -0.23672,-0.22556 -0.61807,0.22556 c -4.93112,0 -7.6926,-0.95426 -8.31066,-2.8714 l -0.23661,-1.55278 c 0,-2.33342 2.13018,-3.66074 6.39074,-3.96434 z m -5.53607,4.19862 c 0,1.70889 1.42032,2.74118 4.27384,3.09686 l 1.07808,0.19953 c 2.77495,0 5.82542,-1.17119 9.16552,-3.53067 -4.18147,-1.91714 -6.60118,-2.8714 -7.2457,-2.8714 v 0.22556 l -0.22331,-0.22556 h -2.9718 c -2.72217,0.40788 -4.07663,1.44018 -4.07663,3.10568 z m 25.83949,0 c 2.98486,1.92581 5.97006,3.0274 8.98137,3.29639 2.87973,0 4.72087,-1.02359 5.5492,-3.07097 -0.43392,-2.2207 -2.0119,-3.3311 -4.70747,-3.3311 h -1.3021 c -1.98544,0 -4.68137,0.89351 -8.08708,2.67187 z m -8.96831,-0.23428 c 1.59138,1.0323 2.73508,1.55278 3.41912,1.55278 2.14347,-0.7808 3.20851,-1.30115 3.20851,-1.55278 v -0.19953 l -3.01131,-1.77836 h -0.1972 c -0.71014,0 -1.8542,0.65938 -3.41912,1.97789 z m -48.47029,-1.31851 1.73591,1.11898 h 28.39036 v 1.09304 h -28.62711 l -1.26241,0.88484 h -0.42072 c -0.74965,-0.74605 -1.39388,-1.11894 -1.93311,-1.11894 v -0.65941 c 0.56541,0 1.27551,-0.44235 2.11708,-1.31851 z m 103.55512,0 h 0.19721 c 0,0.57259 0.64452,1.09294 1.91981,1.55279 v 0.22542 l -2.34032,1.5269 -1.51236,-1.09309 h -28.58805 v -1.09304 h 27.96998 c 0.64417,0 1.43334,-0.37289 2.35373,-1.11898 z m -62.75105,5.30888 h 0.42087 v 0.20825 l 8.74465,-1.761 v -0.65927 l -2.77495,-1.11894 c -2.61655,1.83017 -4.74662,2.86258 -6.39057,3.1054 z m 12.78185,-2.21202 v 0.65927 c 4.87821,1.04098 7.87646,1.55275 8.98101,1.55275 h 0.1972 v -0.22556 c -1.44638,-0.13879 -3.57681,-1.17105 -6.40397,-3.1054 l -2.77424,1.11894"
       inkscape:connector-curvature="0" />
  </g>
</svg>
